# xmcd
#
# Track frame offsets: 
#        150
#        12628
#        27715
#        39403
#        52806
#        70246
#        83246
#        94356
#        118916
#        132307
#        145853
#        158529
#        176705
#        188710
#        201613
#
# Disc length: 2870 seconds
#
# Revision: 5
# Processed by: cddbd v1.5.2PL0 Copyright (c) Steve Scherf et al.
# Submitted via: ExactAudioCopy v1.1
#
DISCID=db0b340f
DTITLE=Various Artist - MOJO The Roots Of Hendrix
DYEAR=2005
DGENRE=Blues
TTITLE0=Howlin' Wolf - Killing Floor
TTITLE1=Albert King - Born Under A Bad Sign
TTITLE2=Jimmy Reed - Bright Lights Big City
TTITLE3=B.B. King - Sweet Little Angel
TTITLE4=Buddy Guy - When My Left Eye Jumps
TTITLE5=T-Bone Walker - You're My Best Poker Hand
TTITLE6=The Fabulous Wailers - Tall Cool One
TTITLE7=Steve Cropper, Pop Staples and Albert King - What'd I Say
TTITLE8=Booker T. and The M.G.'s - It's Your Thing
TTITLE9=Elmore James - (My) Bleeding Heart
TTITLE10=Muddy Waters - (I'm Your) Hoochie Coochie Man
TTITLE11=Little Richard - I Don't Know What You've Got, But It's Got M
TTITLE11=e (Parts 1 and 2)
TTITLE12=John Hammond Jr. - So Many Roads, So Many Trains
TTITLE13=Robert Petway - Catfish Blues
TTITLE14=Big Bill Broonzy - Key To The Highway
EXTD=
EXTT0=
EXTT1=
EXTT2=
EXTT3=
EXTT4=
EXTT5=
EXTT6=
EXTT7=
EXTT8=
EXTT9=
EXTT10=
EXTT11=
EXTT12=
EXTT13=
EXTT14=
PLAYORDER=
